<svg width="500" height="500" viewBox="0 0 500 500" fill="none" xmlns="http://www.w3.org/2000/svg">
<rect width="500" height="500" rx="24" fill="#FFF0FF"/>
<path d="M426.798 151.89C423.493 151.993 421.944 153.542 422.151 156.537C422.048 153.749 420.395 152.303 417.504 151.89C420.602 151.27 421.841 149.515 422.151 147.243C422.461 149.928 423.907 151.58 426.798 151.89Z" fill="white"/>
<path d="M169.04 71.1336C165.736 71.2369 164.187 72.7859 164.393 75.7807C164.29 72.9925 162.638 71.5467 159.746 71.1336C162.844 70.514 164.083 68.7585 164.393 66.4865C164.703 69.1715 166.149 70.8238 169.04 71.1336Z" fill="white"/>
<path d="M33.345 283.351C30.0404 283.454 28.4913 285.003 28.6979 287.998C28.5946 285.21 26.9423 283.764 24.0508 283.351C27.1488 282.731 28.3881 280.976 28.6979 278.704C29.0077 281.492 30.3502 283.144 33.345 283.351Z" fill="white"/>
<path d="M75.9954 235.228C72.6908 235.331 71.1417 236.88 71.3483 239.875C71.245 237.087 69.5927 235.641 66.7012 235.228C69.7992 234.608 71.0385 232.852 71.3483 230.581C71.6581 233.369 73.1038 235.021 75.9954 235.228Z" fill="white"/>
<path d="M60.5051 415.019C57.2005 415.122 55.6515 416.671 55.858 419.666C55.7548 416.877 54.1025 415.432 51.2109 415.019C54.309 414.399 55.5482 412.643 55.858 410.371C56.1678 413.056 57.6136 414.812 60.5051 415.019Z" fill="white"/>
<path d="M111.21 379.494C107.906 379.597 106.357 381.146 106.563 384.141C106.46 381.353 104.808 379.907 101.916 379.494C105.014 378.874 106.253 377.119 106.563 374.847C106.873 377.635 108.319 379.288 111.21 379.494Z" fill="white"/>
<path d="M242.568 441.559C239.263 441.662 237.714 443.211 237.921 446.206C237.817 443.417 236.165 441.972 233.273 441.559C236.371 440.939 237.611 439.183 237.921 436.911C238.23 439.596 239.676 441.352 242.568 441.559Z" fill="white"/>
<path d="M413.786 446.206C410.482 446.309 408.933 447.858 409.139 450.853C409.036 448.065 407.384 446.619 404.492 446.206C407.59 445.586 408.829 443.831 409.139 441.559C409.449 444.347 410.895 445.999 413.786 446.206Z" fill="white"/>
<path d="M154.066 446.206C150.761 446.309 149.212 447.858 149.419 450.853C149.315 448.065 147.663 446.619 144.771 446.206C147.87 445.586 149.109 443.831 149.419 441.559C149.728 444.347 151.174 445.999 154.066 446.206Z" fill="white"/>
<path d="M318.263 388.788C314.958 388.892 313.409 390.441 313.616 393.435C313.513 390.647 311.86 389.201 308.969 388.788C312.067 388.169 313.306 386.413 313.616 384.141C313.926 386.929 315.371 388.582 318.263 388.788Z" fill="white"/>
<path d="M468.21 205.176C464.906 205.28 463.357 206.829 463.563 209.824C463.46 207.035 461.808 205.59 458.916 205.176C462.014 204.557 463.253 202.801 463.563 200.529C463.873 203.214 465.319 204.867 468.21 205.176Z" fill="white"/>
<path d="M436.197 260.632C432.892 260.735 431.343 262.284 431.549 265.279C431.446 262.491 429.794 261.045 426.902 260.632C430 260.012 431.24 258.257 431.549 255.985C431.859 258.67 433.305 260.425 436.197 260.632Z" fill="white"/>
<path d="M446.316 353.161C443.011 353.264 441.462 354.813 441.669 357.808C441.565 355.019 439.913 353.574 437.021 353.161C440.12 352.541 441.359 350.785 441.669 348.513C441.978 351.198 443.321 352.954 446.316 353.161Z" fill="white"/>
<path d="M268.281 75.7807C264.976 75.884 263.427 77.433 263.633 80.4278C263.53 77.6396 261.878 76.1938 258.986 75.7807C262.084 75.1611 263.324 73.4055 263.633 71.1336C263.943 73.8186 265.389 75.5742 268.281 75.7807Z" fill="white"/>
<path d="M54.3079 75.7807C51.0033 75.884 49.4542 77.433 49.6608 80.4278C49.5575 77.6396 47.9052 76.1938 45.0137 75.7807C48.1117 75.1611 49.351 73.4055 49.6608 71.1336C49.9706 73.8186 51.4163 75.5742 54.3079 75.7807Z" fill="white"/>
<path d="M377.745 35.2994C374.441 35.4026 372.892 36.9517 373.098 39.9465C372.995 37.1582 371.343 35.7125 368.451 35.2994C371.549 34.6798 372.788 32.9242 373.098 30.6523C373.408 33.3373 374.751 34.9896 377.745 35.2994Z" fill="white"/>
<path d="M247.422 37.7778C248.334 37.7778 249.074 37.0381 249.074 36.1255C249.074 35.213 248.334 34.4732 247.422 34.4732C246.509 34.4732 245.77 35.213 245.77 36.1255C245.77 37.0381 246.509 37.7778 247.422 37.7778Z" fill="white"/>
<path d="M54.3085 118.431C55.2211 118.431 55.9608 117.691 55.9608 116.778C55.9608 115.866 55.2211 115.126 54.3085 115.126C53.396 115.126 52.6562 115.866 52.6562 116.778C52.6562 117.691 53.396 118.431 54.3085 118.431Z" fill="white"/>
<path d="M66.7011 278.291C67.6137 278.291 68.3534 277.551 68.3534 276.638C68.3534 275.726 67.6137 274.986 66.7011 274.986C65.7886 274.986 65.0488 275.726 65.0488 276.638C65.0488 277.551 65.7886 278.291 66.7011 278.291Z" fill="white"/>
<path d="M295.441 421.318C296.354 421.318 297.094 420.578 297.094 419.666C297.094 418.753 296.354 418.013 295.441 418.013C294.529 418.013 293.789 418.753 293.789 419.666C293.789 420.578 294.529 421.318 295.441 421.318Z" fill="white"/>
<path d="M385.801 402.317C386.713 402.317 387.453 401.577 387.453 400.664C387.453 399.752 386.713 399.012 385.801 399.012C384.888 399.012 384.148 399.752 384.148 400.664C384.148 401.577 384.888 402.317 385.801 402.317Z" fill="white"/>
<path d="M436.197 223.455C437.11 223.455 437.85 222.715 437.85 221.803C437.85 220.89 437.11 220.15 436.197 220.15C435.285 220.15 434.545 220.89 434.545 221.803C434.545 222.715 435.285 223.455 436.197 223.455Z" fill="white"/>
<path d="M403.254 312.163C404.166 312.163 404.906 311.423 404.906 310.511C404.906 309.598 404.166 308.858 403.254 308.858C402.341 308.858 401.602 309.598 401.602 310.511C401.602 311.423 402.341 312.163 403.254 312.163Z" fill="white"/>
<path d="M468.209 262.284C469.121 262.284 469.861 261.544 469.861 260.632C469.861 259.719 469.121 258.979 468.209 258.979C467.296 258.979 466.557 259.719 466.557 260.632C466.557 261.544 467.296 262.284 468.209 262.284Z" fill="white"/>
<path d="M179.678 395.088C180.59 395.088 181.33 394.348 181.33 393.435C181.33 392.523 180.59 391.783 179.678 391.783C178.765 391.783 178.025 392.523 178.025 393.435C178.025 394.348 178.765 395.088 179.678 395.088Z" fill="white"/>
<path d="M217.576 454.261C218.489 454.261 219.228 453.521 219.228 452.608C219.228 451.696 218.489 450.956 217.576 450.956C216.664 450.956 215.924 451.696 215.924 452.608C215.924 453.521 216.664 454.261 217.576 454.261Z" fill="white"/>
<path d="M350.277 461.18C351.19 461.18 351.93 460.44 351.93 459.527C351.93 458.615 351.19 457.875 350.277 457.875C349.365 457.875 348.625 458.615 348.625 459.527C348.625 460.44 349.365 461.18 350.277 461.18Z" fill="white"/>
<path d="M483.699 366.792C484.612 366.792 485.351 366.052 485.351 365.14C485.351 364.227 484.612 363.487 483.699 363.487C482.787 363.487 482.047 364.227 482.047 365.14C482.047 366.052 482.787 366.792 483.699 366.792Z" fill="white"/>
<path d="M476.781 137.432C477.694 137.432 478.434 136.692 478.434 135.78C478.434 134.867 477.694 134.128 476.781 134.128C475.869 134.128 475.129 134.867 475.129 135.78C475.129 136.692 475.869 137.432 476.781 137.432Z" fill="white"/>
<path d="M446.316 82.0801C447.229 82.0801 447.969 81.3404 447.969 80.4278C447.969 79.5153 447.229 78.7755 446.316 78.7755C445.404 78.7755 444.664 79.5153 444.664 80.4278C444.664 81.3404 445.404 82.0801 446.316 82.0801Z" fill="white"/>
<path d="M28.5937 236.88C29.5062 236.88 30.246 236.14 30.246 235.228C30.246 234.315 29.5062 233.575 28.5937 233.575C27.6812 233.575 26.9414 234.315 26.9414 235.228C26.9414 236.14 27.6812 236.88 28.5937 236.88Z" fill="white"/>
<path d="M81.1582 404.072C82.0707 404.072 82.8105 403.332 82.8105 402.42C82.8105 401.507 82.0707 400.767 81.1582 400.767C80.2456 400.767 79.5059 401.507 79.5059 402.42C79.5059 403.332 80.2456 404.072 81.1582 404.072Z" fill="white"/>
<path d="M133.723 36.1256C134.635 36.1256 135.375 35.3858 135.375 34.4733C135.375 33.5607 134.635 32.821 133.723 32.821C132.81 32.821 132.07 33.5607 132.07 34.4733C132.07 35.3858 132.81 36.1256 133.723 36.1256Z" fill="white"/>
<path d="M36.8554 32.3046C37.768 32.3046 38.5077 31.5648 38.5077 30.6523C38.5077 29.7398 37.768 29 36.8554 29C35.9429 29 35.2031 29.7398 35.2031 30.6523C35.2031 31.5648 35.9429 32.3046 36.8554 32.3046Z" fill="white"/>
<path d="M169.039 102.734C169.952 102.734 170.691 101.994 170.691 101.082C170.691 100.169 169.952 99.4293 169.039 99.4293C168.126 99.4293 167.387 100.169 167.387 101.082C167.387 101.994 168.126 102.734 169.039 102.734Z" fill="white"/>
<path d="M298.125 68.1389C299.038 68.1389 299.777 67.3991 299.777 66.4866C299.777 65.574 299.038 64.8343 298.125 64.8343C297.212 64.8343 296.473 65.574 296.473 66.4866C296.473 67.3991 297.212 68.1389 298.125 68.1389Z" fill="white"/>
<path d="M334.371 93.1299C336.083 93.1299 337.47 91.7428 337.47 90.0318C337.47 88.3208 336.083 86.9337 334.371 86.9337C332.66 86.9337 331.273 88.3208 331.273 90.0318C331.273 91.7428 332.66 93.1299 334.371 93.1299Z" stroke="white" stroke-width="0.7071" stroke-miterlimit="10"/>
<path d="M110.176 67.829C111.887 67.829 113.274 66.442 113.274 64.731C113.274 63.02 111.887 61.6329 110.176 61.6329C108.465 61.6329 107.078 63.02 107.078 64.731C107.078 66.442 108.465 67.829 110.176 67.829Z" stroke="white" stroke-width="0.7071" stroke-miterlimit="10"/>
<path d="M17.6469 150.341C19.3579 150.341 20.745 148.954 20.745 147.243C20.745 145.532 19.3579 144.145 17.6469 144.145C15.9359 144.145 14.5488 145.532 14.5488 147.243C14.5488 148.954 15.9359 150.341 17.6469 150.341Z" stroke="white" stroke-width="0.7071" stroke-miterlimit="10"/>
<path d="M136.819 403.762C138.53 403.762 139.917 402.375 139.917 400.664C139.917 398.953 138.53 397.566 136.819 397.566C135.108 397.566 133.721 398.953 133.721 400.664C133.721 402.375 135.108 403.762 136.819 403.762Z" stroke="white" stroke-width="0.7071" stroke-miterlimit="10"/>
<path d="M270.862 422.764C272.573 422.764 273.96 421.377 273.96 419.666C273.96 417.955 272.573 416.568 270.862 416.568C269.151 416.568 267.764 417.955 267.764 419.666C267.764 421.377 269.151 422.764 270.862 422.764Z" stroke="white" stroke-width="0.7071" stroke-miterlimit="10"/>
<path d="M434.543 422.764C436.254 422.764 437.641 421.377 437.641 419.666C437.641 417.955 436.254 416.568 434.543 416.568C432.832 416.568 431.445 417.955 431.445 419.666C431.445 421.377 432.832 422.764 434.543 422.764Z" stroke="white" stroke-width="0.7071" stroke-miterlimit="10"/>
<path d="M478.743 238.326C480.454 238.326 481.841 236.939 481.841 235.228C481.841 233.517 480.454 232.13 478.743 232.13C477.032 232.13 475.645 233.517 475.645 235.228C475.645 236.939 477.032 238.326 478.743 238.326Z" stroke="white" stroke-width="0.7071" stroke-miterlimit="10"/>
<path d="M359.26 425.862C360.971 425.862 362.358 424.475 362.358 422.764C362.358 421.053 360.971 419.666 359.26 419.666C357.549 419.666 356.162 421.053 356.162 422.764C356.162 424.475 357.549 425.862 359.26 425.862Z" stroke="white" stroke-width="0.7071" stroke-miterlimit="10"/>
<path d="M475.643 332.92C477.354 332.92 478.741 331.533 478.741 329.822C478.741 328.111 477.354 326.724 475.643 326.724C473.932 326.724 472.545 328.111 472.545 329.822C472.545 331.533 473.932 332.92 475.643 332.92Z" stroke="white" stroke-width="0.7071" stroke-miterlimit="10"/>
<path d="M440.635 178.843C442.346 178.843 443.733 177.456 443.733 175.745C443.733 174.034 442.346 172.647 440.635 172.647C438.924 172.647 437.537 174.034 437.537 175.745C437.537 177.456 438.924 178.843 440.635 178.843Z" stroke="white" stroke-width="0.7071" stroke-miterlimit="10"/>
<path d="M434.543 47.072C436.254 47.072 437.641 45.685 437.641 43.974C437.641 42.263 436.254 40.8759 434.543 40.8759C432.832 40.8759 431.445 42.263 431.445 43.974C431.445 45.685 432.832 47.072 434.543 47.072Z" stroke="white" stroke-width="0.7071" stroke-miterlimit="10"/>
<path d="M316.198 40.9791C317.909 40.9791 319.296 39.5921 319.296 37.8811C319.296 36.1701 317.909 34.783 316.198 34.783C314.487 34.783 313.1 36.1701 313.1 37.8811C313.1 39.5921 314.487 40.9791 316.198 40.9791Z" stroke="white" stroke-width="0.7071" stroke-miterlimit="10"/>
<path d="M95.2016 163.972C96.9126 163.972 98.2996 162.585 98.2996 160.874C98.2996 159.163 96.9126 157.776 95.2016 157.776C93.4906 157.776 92.1035 159.163 92.1035 160.874C92.1035 162.585 93.4906 163.972 95.2016 163.972Z" stroke="white" stroke-width="0.7071" stroke-miterlimit="10"/>
<path d="M26.9418 341.285C28.6528 341.285 30.0399 339.898 30.0399 338.187C30.0399 336.476 28.6528 335.089 26.9418 335.089C25.2308 335.089 23.8438 336.476 23.8438 338.187C23.8438 339.898 25.2308 341.285 26.9418 341.285Z" stroke="white" stroke-width="0.7071" stroke-miterlimit="10"/>
<path d="M98.2992 471.3C100.01 471.3 101.397 469.913 101.397 468.202C101.397 466.491 100.01 465.104 98.2992 465.104C96.5882 465.104 95.2012 466.491 95.2012 468.202C95.2012 469.913 96.5882 471.3 98.2992 471.3Z" stroke="white" stroke-width="0.7071" stroke-miterlimit="10"/>
<path d="M210.139 74.2317C211.85 74.2317 213.237 72.8447 213.237 71.1336C213.237 69.4226 211.85 68.0356 210.139 68.0356C208.428 68.0356 207.041 69.4226 207.041 71.1336C207.041 72.8447 208.428 74.2317 210.139 74.2317Z" stroke="white" stroke-width="0.7071" stroke-miterlimit="10"/>
<path opacity="0.27" d="M179.676 170.478L319.295 178.223L311.756 123.904L179.676 170.478Z" fill="#600080"/>
<path opacity="0.61" d="M413.27 184.936L389.105 186.898V151.373C389.105 141.253 380.947 133.095 370.826 133.095H138.885C128.765 133.095 120.606 141.253 120.606 151.373V208.378L96.4414 210.34L102.327 300.08L120.606 302.043V356.465C120.606 366.585 128.765 374.744 138.885 374.744H222.326L254.133 406.55L285.94 374.744H370.723C380.843 374.744 389.002 366.585 389.002 356.465V280.563L413.167 278.601V184.936H413.27Z" fill="#00CFE7"/>
<path d="M89.3145 294.71L114.512 310.511L113.273 292.335L89.3145 294.71Z" fill="#F89A37"/>
<path d="M405.832 175.745L377.434 158.602L378.879 181.012L405.832 175.745Z" fill="#E48521"/>
<path d="M113.273 142.183V347.377C113.273 357.498 121.432 365.656 131.552 365.656H214.993L246.8 397.463L278.607 365.656H363.39C373.511 365.656 381.669 357.498 381.669 347.377V142.183C381.669 132.062 373.511 123.904 363.39 123.904H131.449C121.432 123.904 113.273 132.062 113.273 142.183Z" fill="#160F1C"/>
<path opacity="0.39" d="M310.206 272.921H161.396C154.58 272.921 149.004 267.344 149.004 260.528V187.311C149.004 180.495 154.58 174.919 161.396 174.919H310.206C317.022 174.919 322.599 180.495 322.599 187.311V260.528C322.495 267.447 317.022 272.921 310.206 272.921Z" fill="#160F1C"/>
<path d="M373.407 126.899C373.82 128.448 374.13 130.1 374.13 131.752V336.947C374.13 347.068 365.972 355.226 355.851 355.226H271.068L239.158 386.929L207.351 355.123H123.91C120.192 355.123 116.784 353.987 113.893 352.128C116.061 359.873 123.083 365.553 131.448 365.553H214.889L246.696 397.36L278.503 365.553H363.287C373.407 365.553 381.565 357.395 381.565 347.274V142.183C381.565 135.78 378.364 130.203 373.407 126.899Z" fill="#0C080F"/>
<path d="M405.834 269.41L89.0059 294.814V201.046L405.834 175.745V269.41Z" fill="url(#paint0_linear)"/>
<path fill-rule="evenodd" clip-rule="evenodd" d="M275.64 215.548C274.413 215.714 273.01 216.052 271.779 216.741C270.374 217.428 269.493 218.12 268.962 218.988L266.431 239.928C266.077 240.572 265.699 241.144 265.292 241.643C263.879 243.377 262.646 244.415 261.419 244.58C260.017 244.744 259.325 243.692 259.34 241.599C259.349 240.377 259.906 236.194 261.008 229.223C261.071 228.642 261.133 228.119 261.188 227.654L261.188 227.654L261.188 227.654C261.299 226.724 261.382 226.027 261.386 225.562C261.404 223.119 260.542 221.368 258.801 219.959C257.061 218.551 254.613 218.183 251.46 218.509C247.253 219.175 244.087 221.245 241.785 224.718C240.231 221.74 236.913 220.669 231.481 221.326C228.852 221.83 226.392 223.033 224.099 225.284C223.938 223.363 222.368 222.654 219.39 222.981C218.513 223.149 216.934 223.66 215.003 224.344L210.906 257.289L220.193 256.137C220.385 253.871 221.312 246.898 222.975 235.221C223.163 233.477 223.876 231.738 224.938 230.176C226 228.613 227.233 227.575 228.81 227.413C230.387 227.25 231.435 227.607 232.13 228.31C232.648 229.186 232.99 230.236 232.981 231.457L230.181 254.816L239.122 253.138C239.389 251.128 239.948 246.674 240.796 239.906L240.8 239.875C241.128 237.259 241.499 234.298 241.913 231C242.451 229.259 243.162 227.869 244.221 226.655C245.281 225.442 246.511 224.753 247.913 224.589C249.315 224.425 250.362 224.782 251.057 225.485C251.752 226.188 252.095 227.237 252.086 228.459L250.219 243.973C250.205 245.892 250.892 247.642 252.281 249.223C253.495 250.802 255.766 251.343 258.57 251.015C262.038 250.547 264.9 248.903 267.186 246.052C267.533 246.685 267.993 247.253 268.572 247.774C269.962 249.18 272.234 249.721 275.389 249.221C277.929 248.818 280.133 247.848 282.093 246.128L281.877 247.873L291.34 246.548C291.348 245.501 292.275 238.529 294.122 225.631C294.313 223.539 295.026 221.8 296.087 220.412C297.147 219.024 298.379 218.161 299.956 217.998C301.358 217.834 302.406 218.191 303.101 218.894C303.796 219.597 304.138 220.646 304.129 221.867L302.261 237.557C302.247 239.476 302.934 241.226 304.501 242.459C305.714 244.038 307.986 244.578 310.789 244.25C314.888 243.698 318.139 241.426 320.595 237.486C320.97 238.008 321.391 238.488 321.858 238.924C324.116 241.209 326.911 242.102 330.238 241.953C326.358 245.762 324.403 249.761 324.373 253.773C324.348 257.088 325.383 259.19 327.475 260.427C329.567 261.489 331.664 262.028 333.767 261.695C337.447 261.199 340.61 259.652 342.905 257.052C345.202 254.278 346.628 250.799 347.186 246.441L349.221 231.8C353.624 228.169 357.151 224.705 359.801 221.585L357.905 217.557C356.138 219.812 353.666 222.586 350.142 225.7L352.741 205.829C351.868 205.473 350.643 205.464 349.066 205.627C347.489 205.79 345.908 206.476 344.5 207.512C342.403 206.973 340.128 206.956 337.499 207.286C331.891 208.116 327.496 210.526 323.965 214.513C320.259 218.498 318.471 223.545 318.426 229.651C318.416 230.881 318.523 232.031 318.74 233.094C317.336 235.84 315.622 237.327 313.64 237.641C312.238 237.805 311.546 236.753 311.561 234.66C311.569 233.613 312.125 229.43 313.229 222.284C313.292 221.703 313.354 221.18 313.409 220.715L313.409 220.715C313.52 219.785 313.603 219.088 313.606 218.623C313.625 216.18 312.762 214.429 311.022 213.02C309.106 211.785 306.659 211.243 303.504 211.743C300.174 212.242 297.538 213.618 295.243 216.218C295.085 213.948 293.516 213.064 290.362 213.39C289.485 213.558 287.906 214.069 285.975 214.753L283.069 238.237C282.93 238.49 282.787 238.738 282.643 238.981C281.402 241.065 279.992 242.276 278.415 242.439C277.014 242.603 276.141 242.247 275.975 241.025C275.803 240.674 275.806 240.151 275.812 239.453L275.812 239.453C275.817 238.755 275.998 237.884 276.18 237.013L276.18 237.013C276.181 236.839 277.11 229.692 278.966 215.573C278.092 215.392 276.866 215.383 275.64 215.548ZM275.958 196.358C274.381 196.521 273.151 197.21 272.091 198.423C271.032 199.637 270.496 201.028 270.484 202.599C270.473 204.169 270.989 205.394 272.033 206.274C273.076 207.154 274.299 207.512 275.876 207.35C277.278 207.186 278.683 206.498 279.743 205.285C280.802 204.071 281.338 202.679 281.349 201.109C281.361 199.539 280.845 198.314 279.801 197.434C278.757 196.554 277.535 196.195 275.958 196.358ZM139.446 261.816C142.747 265.156 147.991 266.242 155.176 265.249C160.083 264.588 164.65 262.528 169.402 259.074C171.365 257.468 173.14 255.748 174.763 253.879C175.473 255.475 176.541 256.886 177.987 258.091C180.77 260.554 184.79 261.457 189.696 260.795C194.603 260.134 198.823 257.723 202.354 253.736C205.885 249.749 207.673 244.703 207.717 238.771C207.747 234.758 206.37 231.607 203.586 229.318C200.802 227.029 197.132 226.13 192.927 226.622C187.32 227.278 182.751 229.686 179.22 233.673C175.514 237.658 173.727 242.53 173.684 248.288C173.683 248.324 173.683 248.361 173.683 248.397C172.122 250.255 170.417 251.942 168.569 253.484C165.045 256.424 161.356 258.141 157.501 258.636C155.223 258.968 153.299 258.779 151.728 258.07C150.157 257.534 148.939 256.478 148.074 255.076C146.518 252.447 145.668 249.126 145.695 245.462C145.728 241.1 146.284 236.917 147.716 232.74C148.971 228.737 150.922 225.262 153.57 222.315C156.218 219.369 159.031 217.82 162.186 217.32C164.639 216.989 166.386 217.525 167.778 218.583C168.996 219.639 169.683 221.389 169.668 223.482C169.652 225.576 168.939 227.315 167.702 228.876C166.466 230.263 165.234 231.126 164.007 231.291C162.781 231.457 161.732 231.274 161.212 230.573C160.692 229.871 160.347 229.17 160.355 228.124C160.361 227.251 160.718 226.382 161.248 225.688C158.795 226.018 156.864 226.702 155.631 227.739C154.398 228.777 153.687 230.168 153.675 231.738C153.664 233.308 154.528 234.71 156.27 235.945C158.011 237.179 160.459 237.546 163.614 237.046C166.769 236.546 169.583 234.823 172.055 232.049C174.352 229.1 175.603 225.795 175.631 221.956C175.66 218.118 174.28 215.316 171.669 213.377C168.882 211.437 165.211 210.712 160.479 211.375C155.573 212.036 151.18 214.271 147.126 217.905C142.896 221.712 139.888 226.052 137.748 231.27C135.608 236.489 134.516 242.064 134.472 247.996C134.427 254.102 136.143 258.651 139.446 261.816ZM185.848 236.863C187.445 234.083 189.206 232.701 191.484 232.369C193.762 232.037 195.332 232.746 196.195 234.498C197.232 236.25 197.739 238.697 197.716 241.837C197.692 244.977 196.97 247.938 195.375 250.543C193.779 253.323 192.018 254.706 189.739 255.038C187.636 255.371 185.891 254.66 184.852 253.082C183.813 251.504 183.305 249.232 183.325 246.615C183.528 242.778 184.428 239.47 185.848 236.863ZM331.301 216.836C333.07 214.406 335.357 212.853 338.335 212.526C339.562 212.361 340.961 212.546 342.358 213.08L340.494 228.245C338.887 232.421 336.769 234.848 333.79 235.174C332.038 235.336 330.64 234.976 329.599 233.747C328.558 232.518 328.046 230.77 328.063 228.502L328.072 227.28C328.456 222.747 329.532 219.265 331.301 216.836ZM330.843 254.694C330.148 253.991 329.805 253.116 329.814 251.895C329.843 248.056 332.85 243.891 339.185 239.402L337.882 249.861C337.332 253.172 335.917 255.081 333.289 255.41C332.412 255.578 331.538 255.397 330.843 254.694Z" fill="white"/>
<path fill-rule="evenodd" clip-rule="evenodd" d="M292.007 294.52L285.998 295.34L282.584 337.81L289.958 336.718L291.87 313.366L299.381 335.352L305.253 334.533L308.804 292.335L301.566 293.291L299.654 315.141L292.007 294.52ZM254.725 338.357C252.95 336.308 252.267 333.031 252.677 328.388L254.042 312.683C254.452 308.176 255.681 304.626 257.866 302.031C260.051 299.436 263.329 297.934 267.835 297.252C272.342 296.569 275.483 297.388 277.258 299.3C279.033 301.348 279.716 304.626 279.306 309.132L277.941 324.837C277.531 329.344 276.302 332.894 274.117 335.489C271.932 338.083 268.654 339.722 264.148 340.405C259.505 341.224 256.364 340.542 254.725 338.357ZM267.699 332.484C268.245 331.392 268.654 330.026 268.791 328.251L270.43 308.313C270.566 306.538 270.43 305.309 270.02 304.353C269.61 303.533 268.654 303.124 267.152 303.397C265.65 303.67 264.694 304.216 264.011 305.309C263.465 306.401 263.055 307.767 262.919 309.406L261.28 329.344C261.144 331.119 261.28 332.484 261.69 333.304C262.099 334.26 263.055 334.533 264.558 334.396C266.06 334.26 267.152 333.577 267.699 332.484ZM222.361 332.621C221.951 337.264 222.634 340.542 224.409 342.59C226.048 344.775 229.189 345.458 233.832 344.638C238.338 343.956 241.616 342.317 243.801 339.722C245.986 337.128 247.215 333.577 247.625 329.07L248.99 313.366C249.4 308.859 248.717 305.582 246.942 303.533C245.167 301.621 242.026 300.802 237.519 301.485C233.013 302.168 229.735 303.67 227.55 306.265C225.365 308.859 224.136 312.41 223.726 316.916L222.361 332.621ZM238.475 332.484C238.338 334.26 237.929 335.625 237.382 336.718C236.7 337.81 235.744 338.493 234.242 338.63C232.739 338.766 231.783 338.493 231.374 337.537C230.964 336.718 230.828 335.352 230.964 333.577L232.603 313.639C232.739 312 233.149 310.635 233.695 309.542C234.378 308.45 235.334 307.903 236.836 307.63C238.338 307.357 239.294 307.767 239.704 308.586C240.114 309.542 240.25 310.771 240.114 312.546L238.475 332.484ZM195.321 337.264C195.048 341.634 195.867 344.775 197.643 346.687C199.418 348.599 202.286 349.145 206.109 349.008C208.294 348.735 210.206 347.916 211.982 346.823C213.757 345.731 215.122 344.229 216.215 342.59C217.171 340.815 217.854 339.039 217.99 336.991C218.263 334.26 217.854 332.075 216.898 330.299C215.805 328.524 214.44 326.885 212.528 325.383L208.568 322.242C207.338 321.286 206.519 320.33 205.973 319.511C205.427 318.555 205.153 317.463 205.29 316.097C205.29 315.141 205.7 314.322 206.246 313.502C206.792 312.683 207.612 312.273 208.568 312.137C209.797 312 210.616 312.41 211.026 313.366C211.435 314.322 211.572 315.96 211.435 318.145L219.083 315.96C219.083 312.546 218.537 309.952 217.171 307.903C215.805 305.855 213.211 305.172 209.387 305.718C205.836 306.265 202.832 307.494 200.647 309.679C198.462 311.727 197.233 314.595 196.96 318.009C196.823 320.33 197.096 322.242 197.916 323.744C198.735 325.247 199.964 326.612 201.603 327.841L205.7 330.982C207.202 332.075 208.294 333.167 208.977 334.26C209.66 335.352 209.933 336.718 209.797 338.357C209.66 339.449 209.387 340.268 208.841 340.951C208.294 341.634 207.475 342.044 206.519 342.18C205.153 342.317 204.198 341.907 203.651 340.678C202.968 339.586 202.832 337.537 202.968 334.943L195.321 337.264Z" fill="url(#paint1_linear)"/>
<path d="M110.176 94.2658L84.1523 111.512L133.721 146.003L110.176 94.2658Z" fill="url(#paint2_linear)"/>
<path d="M125.15 92.5102L133.721 146.003L110.176 94.2658L125.15 92.5102Z" fill="#FFC342"/>
<path d="M43.877 170.788L54.7202 153.955L77.2327 185.659L43.877 170.788Z" fill="url(#paint3_linear)"/>
<path d="M46.7685 184.523L77.2327 185.659L43.877 170.788L46.7685 184.523Z" fill="#CC0174"/>
<path d="M378.88 88.173L409.137 111.305L345.73 148.895L378.88 88.173Z" fill="url(#paint4_linear)"/>
<path d="M360.911 84.6618L345.73 148.895L378.88 88.1729L360.911 84.6618Z" fill="#CC0174"/>
<path d="M59.8838 342.627L49.6602 317.43L102.327 317.12L59.8838 342.627Z" fill="url(#paint5_linear)"/>
<path d="M69.7966 353.161L102.326 317.12L59.8828 342.627L69.7966 353.161Z" fill="#FFC342"/>
<path d="M450.549 297.808L438.673 322.283L403.252 283.351L450.549 297.808Z" fill="url(#paint6_linear)"/>
<path d="M449.62 288.308L403.252 283.351L450.549 297.808L449.62 288.308Z" fill="#FFC342"/>
<path d="M400.051 368.961L384.871 384.141L368.348 346.035L400.051 368.961Z" fill="url(#paint7_linear)"/>
<path d="M403.252 359.047L368.348 346.035L400.051 368.961L403.252 359.047Z" fill="#CC0174"/>
<path opacity="0.27" d="M113.273 292.335V301.423L381.566 278.91V271.372L113.273 292.335Z" fill="#0C080F"/>
<defs>
<linearGradient id="paint0_linear" x1="405.938" y1="227.792" x2="96.6477" y2="250.511" gradientUnits="userSpaceOnUse">
<stop stop-color="#F89A37"/>
<stop offset="0.0833333" stop-color="#F99E3E"/>
<stop offset="0.229167" stop-color="#FAA54C"/>
<stop offset="0.385417" stop-color="#FBAC59"/>
<stop offset="0.536458" stop-color="#FCB367"/>
<stop offset="0.71875" stop-color="#FDBC77"/>
<stop offset="0.875" stop-color="#FEC385"/>
<stop offset="1" stop-color="#FFC991"/>
</linearGradient>
<linearGradient id="paint1_linear" x1="346.722" y1="306.087" x2="107.735" y2="287.282" gradientUnits="userSpaceOnUse">
<stop stop-color="#FFC342"/>
<stop offset="0.2511" stop-color="#FFC342"/>
<stop offset="0.6204" stop-color="#FCADD4"/>
<stop offset="0.8782" stop-color="#E720FC"/>
<stop offset="0.911458" stop-color="#FF16FF"/>
</linearGradient>
<linearGradient id="paint2_linear" x1="116.601" y1="131.014" x2="88.3687" y2="90.194" gradientUnits="userSpaceOnUse">
<stop stop-color="#FFF696"/>
<stop offset="0.0926958" stop-color="#FFF08D"/>
<stop offset="0.477" stop-color="#FFDA6A"/>
<stop offset="0.7932" stop-color="#FFCC55"/>
<stop offset="1" stop-color="#FFC74D"/>
</linearGradient>
<linearGradient id="paint3_linear" x1="70.1789" y1="175.048" x2="41.68" y2="157.712" gradientUnits="userSpaceOnUse">
<stop stop-color="#FF30A6"/>
<stop offset="0.3592" stop-color="#E6198E"/>
<stop offset="0.7389" stop-color="#D3077B"/>
<stop offset="1" stop-color="#CC0174"/>
</linearGradient>
<linearGradient id="paint4_linear" x1="369.499" y1="147.229" x2="397.075" y2="87.4327" gradientUnits="userSpaceOnUse">
<stop stop-color="#FF30A6"/>
<stop offset="0.3592" stop-color="#E6198E"/>
<stop offset="0.7389" stop-color="#D3077B"/>
<stop offset="1" stop-color="#CC0174"/>
</linearGradient>
<linearGradient id="paint5_linear" x1="94.4424" y1="319.203" x2="43.6388" y2="333.114" gradientUnits="userSpaceOnUse">
<stop stop-color="#FFF696"/>
<stop offset="0.0926958" stop-color="#FFF08D"/>
<stop offset="0.477" stop-color="#FFDA6A"/>
<stop offset="0.7932" stop-color="#FFCC55"/>
<stop offset="1" stop-color="#FFC74D"/>
</linearGradient>
<linearGradient id="paint6_linear" x1="403.204" y1="302.844" x2="450.553" y2="302.844" gradientUnits="userSpaceOnUse">
<stop stop-color="#FFF696"/>
<stop offset="0.0926958" stop-color="#FFF08D"/>
<stop offset="0.477" stop-color="#FFDA6A"/>
<stop offset="0.7932" stop-color="#FFCC55"/>
<stop offset="1" stop-color="#FFC74D"/>
</linearGradient>
<linearGradient id="paint7_linear" x1="368.381" y1="365.12" x2="400.003" y2="365.12" gradientUnits="userSpaceOnUse">
<stop stop-color="#FF30A6"/>
<stop offset="0.3592" stop-color="#E6198E"/>
<stop offset="0.7389" stop-color="#D3077B"/>
<stop offset="1" stop-color="#CC0174"/>
</linearGradient>
</defs>
</svg>
