<svg xmlns="http://www.w3.org/2000/svg" width="28" height="28" viewBox="0 0 28 28">
    <g fill="none" fill-rule="evenodd">
        <path d="M0 0h28v28H0z"/>
        <path fill="#FFF" d="M26.253 14.328L14.678 2.753a1.087 1.087 0 0 0-1.545 0l-11.64 11.64a1.086 1.086 0 0 0 0 1.545c.197.211.473.33.762.327.288.003.564-.116.76-.327l1.089-1.088v9.682a1.085 1.085 0 0 0 1.088 1.088h5.373V17.46c0-.504.41-.914.915-.914h4.916a.914.914 0 0 1 .914.914v8.159h5.31a1.086 1.086 0 0 0 1.088-1.088V14.85l1.022 1.022a1.087 1.087 0 0 0 1.85-.783 1.085 1.085 0 0 0-.327-.761z"/>
    </g>
</svg>
