<svg width="512" height="512" viewBox="0 0 512 512" fill="none" xmlns="http://www.w3.org/2000/svg">
<g clip-path="url(#clip0_1_2)">
<path d="M302 8.79999V90H383.2L302 8.79999Z" fill="white"/>
<path d="M272 120V0H0V512H282.4C239.9 482.1 212 432.8 212 377C212 286 286 212 377 212C382.1 212 387.1 212.3 392 212.8V120H272ZM107 428.2L55.8 377L77 355.8L107 385.8L167 325.8L188.2 347L107 428.2ZM107 308.2L55.8 257L77 235.8L107 265.8L167 205.8L188.2 227L107 308.2ZM107 188.2L55.8 137L77 115.8L107 145.8L167 85.8L188.2 107L107 188.2Z" fill="white"/>
<path d="M376.5 511.5C451.058 511.5 511.5 451.058 511.5 376.5C511.5 301.942 451.058 241.5 376.5 241.5C301.942 241.5 241.5 301.942 241.5 376.5C241.5 451.058 301.942 511.5 376.5 511.5Z" fill="white"/>
<path d="M358.6 466.1C361 467.1 363.7 466.3 365.1 464.1L428.4 363.6C429.4 362 429.5 359.9 428.6 358.2C427.7 356.5 425.9 355.5 424 355.5H381.8L397.5 293.2C398.1 290.7 396.9 288.1 394.5 287.1C392.1 286.1 389.3 286.9 388 289.1L324.7 389.6C323.7 391.2 323.6 393.3 324.5 395C325.4 396.7 327.2 397.7 329.1 397.7H371.3L355.6 460C354.9 462.4 356.2 465.1 358.6 466.1Z" fill="black"/>
</g>
<defs>
<clipPath id="clip0_1_2">
<rect width="512" height="512" fill="white"/>
</clipPath>
</defs>
</svg>
